<?xml version="1.0" standalone="no"?>
<!DOCTYPE svg PUBLIC "-//W3C//DTD SVG 20010904//EN"
 "http://www.w3.org/TR/2001/REC-SVG-20010904/DTD/svg10.dtd">
<svg version="1.0" xmlns="http://www.w3.org/2000/svg"
 width="260.000000pt" height="260.000000pt" viewBox="0 0 260.000000 260.000000"
 preserveAspectRatio="xMidYMid meet">
<metadata>
Created by potrace 1.11, written by Peter Selinger 2001-2013
</metadata>
<g transform="translate(0.000000,260.000000) scale(0.100000,-0.100000)"
fill="#000000" stroke="none">
<path d="M985 2040 c-3 -4 14 -10 38 -13 49 -7 82 -39 96 -95 5 -21 8 -272 6
-577 -2 -474 -4 -544 -18 -571 -20 -38 -61 -66 -99 -68 -15 0 -27 -5 -25 -10
3 -10 796 -16 798 -6 4 28 2 194 -3 203 -3 6 -13 -6 -22 -26 -22 -53 -74 -114
-107 -126 -41 -14 -320 -13 -340 2 -39 30 -43 54 -44 320 0 142 2 262 5 268 4
6 72 8 176 6 138 -2 174 -6 193 -19 33 -23 61 -68 61 -98 0 -18 3 -21 11 -13
17 17 18 303 2 303 -7 0 -13 -11 -13 -24 0 -37 -39 -75 -91 -91 -59 -17 -339
-18 -340 -1 -1 15 -1 443 0 529 l1 69 188 -4 c166 -3 191 -5 227 -24 47 -25
85 -76 85 -115 0 -16 4 -29 9 -29 5 0 8 48 7 107 l-1 108 -398 1 c-219 0 -400
-3 -402 -6z"/>
<path d="M468 1758 c-256 -33 -458 -271 -458 -540 0 -229 149 -433 359 -495
70 -20 208 -24 276 -8 88 20 235 106 235 137 0 24 -7 23 -44 -9 -43 -37 -129
-73 -209 -88 -239 -45 -435 103 -480 364 -47 272 73 522 286 594 46 16 159 17
217 3 89 -21 204 -115 217 -176 7 -40 23 -38 24 3 0 17 3 72 5 122 l5 90 -21
-23 c-24 -26 -26 -25 -160 7 -100 24 -174 30 -252 19z"/>
<path d="M1960 1758 c0 -5 3 -8 8 -9 52 -5 69 -15 87 -49 14 -28 16 -84 15
-471 0 -311 -4 -447 -12 -465 -12 -26 -55 -54 -82 -54 -8 0 -17 -3 -19 -8 -3
-4 138 -8 314 -9 295 -2 319 -1 320 15 7 125 -1 181 -18 135 -15 -40 -56 -92
-81 -102 -31 -13 -226 -18 -260 -7 -44 14 -50 46 -48 266 l1 205 130 2 c139 1
173 -7 197 -50 13 -23 15 -28 17 -49 0 -6 4 -8 8 -4 8 8 12 226 4 240 -2 6
-10 -6 -16 -25 -20 -60 -58 -73 -209 -73 l-131 -1 0 240 0 240 145 -1 c118 0
152 -4 183 -19 39 -18 67 -58 67 -95 0 -12 4 -19 8 -16 10 6 10 151 0 161 -9
9 -628 12 -628 3z"/>
<path d="M4 582 c6 -10 526 -15 526 -5 0 4 -120 9 -266 10 -146 2 -263 -1
-260 -5z"/>
<path d="M540 578 c0 -5 287 -8 638 -9 350 0 810 -1 1020 -2 211 -1 389 1 395
5 7 4 -148 8 -343 8 -195 1 -660 2 -1032 3 -373 1 -678 -1 -678 -5z"/>
</g>
</svg>
