<?xml version="1.0" encoding="utf-8"?>
<!-- Generator: Adobe Illustrator 19.0.0, SVG Export Plug-In . SVG Version: 6.00 Build 0)  -->
<svg version="1.1" id="Capa_1" xmlns="http://www.w3.org/2000/svg" xmlns:xlink="http://www.w3.org/1999/xlink" x="0px" y="0px"
	 viewBox="-308 219.8 174.2 174.2" style="enable-background:new -308 219.8 174.2 174.2;" xml:space="preserve">
<style type="text/css">
	.st0{fill:#2E3450;}
	.st1{fill:#E24412;}
</style>
<g id="XMLID_97_">
	<path id="XMLID_103_" class="st0" d="M-271.6,338.6c-0.9-0.6-1.9-0.9-3-0.9c-1,0-1.9,0.2-2.6,0.6c-0.7,0.4-1.3,0.9-1.8,1.5
		c-0.5,0.6-0.8,1.4-1,2.2s-0.3,1.7-0.3,2.5c0,1,0.1,1.9,0.3,2.7c0.2,0.8,0.6,1.6,1,2.2c0.5,0.6,1.1,1.1,1.8,1.5
		c0.7,0.4,1.6,0.6,2.6,0.6c0.7,0,1.4-0.1,2-0.4c0.6-0.2,1.1-0.6,1.5-1s0.7-0.9,1-1.5c0.3-0.6,0.4-1.2,0.4-1.9h2.2
		c-0.2,2.1-0.9,3.8-2.2,4.9c-1.2,1.2-2.9,1.8-5.1,1.8c-1.3,0-2.4-0.2-3.4-0.7c-1-0.4-1.8-1.1-2.4-1.8c-0.6-0.8-1.1-1.7-1.4-2.8
		c-0.3-1.1-0.5-2.2-0.5-3.4s0.2-2.4,0.5-3.4c0.3-1.1,0.9-2,1.5-2.8c0.7-0.8,1.5-1.4,2.5-1.9s2.1-0.7,3.4-0.7c0.9,0,1.7,0.1,2.5,0.4
		c0.8,0.2,1.5,0.6,2.1,1c0.6,0.5,1.1,1,1.5,1.7s0.7,1.5,0.8,2.4h-2.3C-270.2,340.1-270.8,339.2-271.6,338.6z"/>
	<path id="XMLID_105_" class="st0" d="M-265.4,344.4c0.3-0.8,0.6-1.5,1.1-2c0.5-0.6,1.1-1,1.9-1.4c0.7-0.3,1.6-0.5,2.5-0.5
		c1,0,1.8,0.2,2.6,0.5c0.7,0.3,1.3,0.8,1.8,1.4s0.9,1.2,1.1,2c0.3,0.8,0.4,1.6,0.4,2.5s-0.1,1.7-0.4,2.5c-0.3,0.8-0.6,1.4-1.1,2
		c-0.5,0.6-1.1,1-1.8,1.3c-0.7,0.3-1.6,0.5-2.6,0.5s-1.8-0.2-2.5-0.5c-0.7-0.3-1.4-0.8-1.9-1.3c-0.5-0.6-0.9-1.2-1.1-2
		c-0.3-0.8-0.4-1.6-0.4-2.5C-265.8,346-265.7,345.2-265.4,344.4z M-263.4,348.9c0.2,0.6,0.5,1.1,0.8,1.4c0.3,0.3,0.7,0.7,1.2,0.9
		c0.5,0.2,1,0.3,1.5,0.3s1-0.1,1.5-0.3c0.5-0.2,0.9-0.5,1.2-0.9c0.3-0.4,0.6-0.9,0.8-1.4c0.2-0.5,0.3-1.2,0.3-2c0-0.7-0.1-1.4-0.3-2
		c-0.2-0.6-0.5-1.1-0.8-1.4c-0.3-0.4-0.8-0.7-1.2-0.9c-0.5-0.2-1-0.3-1.5-0.3s-1,0.1-1.5,0.3c-0.5,0.2-0.9,0.5-1.2,0.9
		c-0.3,0.4-0.6,0.9-0.8,1.4c-0.2,0.6-0.3,1.2-0.3,2C-263.7,347.7-263.6,348.3-263.4,348.9z"/>
	<path id="XMLID_108_" class="st0" d="M-249.8,340.8v2.6l0,0c0.5-1,1.1-1.7,1.8-2.2s1.6-0.7,2.7-0.7v2.1c-0.8,0-1.5,0.1-2,0.3
		c-0.6,0.2-1,0.5-1.4,1c-0.3,0.4-0.6,0.9-0.8,1.5c-0.2,0.6-0.2,1.3-0.2,2.1v5.4h-2v-12.1H-249.8z"/>
	<path id="XMLID_110_" class="st0" d="M-241.7,340.8v1.6l0,0c0.3-0.7,0.8-1.2,1.6-1.5c0.7-0.3,1.5-0.5,2.3-0.5
		c0.9,0,1.8,0.2,2.5,0.5c0.7,0.3,1.3,0.8,1.7,1.4c0.5,0.6,0.8,1.3,1,2c0.2,0.8,0.4,1.6,0.4,2.4c0,0.9-0.1,1.7-0.3,2.4
		c-0.2,0.8-0.6,1.4-1,2c-0.5,0.6-1,1-1.7,1.4c-0.7,0.3-1.5,0.5-2.4,0.5c-0.3,0-0.6,0-1-0.1c-0.4-0.1-0.7-0.2-1.1-0.3
		c-0.4-0.1-0.7-0.3-1-0.6c-0.3-0.3-0.6-0.5-0.8-0.9l0,0v6.3h-2v-16.6H-241.7z M-234.5,345.2c-0.1-0.5-0.4-1-0.7-1.4
		c-0.3-0.4-0.7-0.8-1.2-1c-0.5-0.3-1-0.4-1.7-0.4s-1.2,0.1-1.7,0.4c-0.5,0.3-0.9,0.6-1.2,1c-0.3,0.4-0.5,0.9-0.6,1.5
		c-0.1,0.5-0.2,1.1-0.2,1.7s0.1,1.2,0.2,1.7c0.1,0.6,0.4,1,0.7,1.5c0.3,0.4,0.7,0.8,1.2,1c0.5,0.3,1.1,0.4,1.8,0.4
		c0.7,0,1.3-0.1,1.7-0.4c0.5-0.3,0.8-0.6,1.1-1.1s0.5-0.9,0.6-1.5c0.1-0.6,0.2-1.1,0.2-1.7C-234.3,346.3-234.4,345.7-234.5,345.2z"
		/>
	<path id="XMLID_113_" class="st0" d="M-230.1,344.4c0.3-0.8,0.6-1.5,1.1-2c0.5-0.6,1.1-1,1.9-1.4c0.7-0.3,1.6-0.5,2.5-0.5
		c1,0,1.8,0.2,2.6,0.5c0.7,0.3,1.3,0.8,1.8,1.4s0.9,1.2,1.1,2c0.3,0.8,0.4,1.6,0.4,2.5s-0.1,1.7-0.4,2.5c-0.3,0.8-0.6,1.4-1.1,2
		c-0.5,0.6-1.1,1-1.8,1.3c-0.7,0.3-1.6,0.5-2.6,0.5s-1.8-0.2-2.5-0.5c-0.7-0.3-1.4-0.8-1.9-1.3c-0.5-0.6-0.9-1.2-1.1-2
		c-0.3-0.8-0.4-1.6-0.4-2.5C-230.5,346-230.3,345.2-230.1,344.4z M-228.1,348.9c0.2,0.6,0.5,1.1,0.8,1.4c0.3,0.3,0.7,0.7,1.2,0.9
		c0.5,0.2,1,0.3,1.5,0.3s1-0.1,1.5-0.3c0.5-0.2,0.9-0.5,1.2-0.9c0.3-0.4,0.6-0.9,0.8-1.4c0.2-0.6,0.3-1.2,0.3-2c0-0.7-0.1-1.4-0.3-2
		c-0.2-0.6-0.5-1.1-0.8-1.4c-0.3-0.4-0.8-0.7-1.2-0.9c-0.5-0.2-1-0.3-1.5-0.3s-1,0.1-1.5,0.3c-0.5,0.2-0.9,0.5-1.2,0.9
		c-0.3,0.4-0.6,0.9-0.8,1.4c-0.2,0.6-0.3,1.2-0.3,2C-228.4,347.7-228.3,348.3-228.1,348.9z"/>
	<path id="XMLID_116_" class="st0" d="M-214.5,340.8v2.6l0,0c0.5-1,1.1-1.7,1.8-2.2s1.6-0.7,2.7-0.7v2.1c-0.8,0-1.5,0.1-2,0.3
		c-0.6,0.2-1,0.5-1.4,1c-0.3,0.4-0.6,0.9-0.8,1.5c-0.2,0.6-0.2,1.3-0.2,2.1v5.4h-2v-12.1H-214.5z"/>
	<path id="XMLID_118_" class="st0" d="M-197.7,353c-0.3,0.2-0.8,0.3-1.4,0.3c-0.5,0-0.9-0.1-1.2-0.4c-0.3-0.3-0.5-0.8-0.5-1.4
		c-0.5,0.7-1.2,1.1-1.9,1.4s-1.5,0.4-2.4,0.4c-0.5,0-1.1-0.1-1.6-0.2s-0.9-0.3-1.3-0.6s-0.6-0.6-0.9-1c-0.2-0.4-0.3-1-0.3-1.6
		c0-0.7,0.1-1.3,0.4-1.7c0.2-0.4,0.5-0.8,0.9-1.1c0.4-0.3,0.8-0.5,1.3-0.6s1-0.3,1.5-0.4s1.1-0.2,1.6-0.2s0.9-0.1,1.3-0.2
		c0.4-0.1,0.7-0.3,0.9-0.4c0.2-0.2,0.3-0.5,0.3-0.9s-0.1-0.8-0.2-1.1c-0.2-0.3-0.4-0.5-0.6-0.6c-0.3-0.1-0.5-0.2-0.9-0.3
		c-0.3,0-0.6-0.1-1-0.1c-0.8,0-1.6,0.2-2.1,0.5c-0.5,0.3-0.9,0.9-0.9,1.8h-2c0-0.8,0.2-1.4,0.5-1.9c0.3-0.5,0.7-0.9,1.1-1.3
		c0.5-0.3,1-0.6,1.6-0.7c0.6-0.1,1.3-0.2,1.9-0.2c0.5,0,1.1,0,1.6,0.1s1,0.2,1.5,0.5s0.8,0.6,1.1,1c0.3,0.4,0.4,1,0.4,1.7v6.2
		c0,0.5,0,0.8,0.1,1s0.2,0.3,0.6,0.3c0.2,0,0.4,0,0.6-0.1V353z M-200.9,346.7c-0.3,0.2-0.6,0.3-1,0.4c-0.4,0.1-0.8,0.2-1.3,0.2
		c-0.4,0.1-0.9,0.1-1.4,0.2s-0.9,0.2-1.2,0.3c-0.3,0.1-0.7,0.4-0.9,0.7c-0.2,0.3-0.3,0.7-0.3,1.2c0,0.3,0.1,0.6,0.2,0.8
		c0.1,0.2,0.3,0.4,0.5,0.6c0.2,0.1,0.5,0.2,0.7,0.3c0.3,0.1,0.6,0.1,0.9,0.1c0.7,0,1.2-0.1,1.7-0.3s0.9-0.4,1.2-0.7
		c0.3-0.3,0.5-0.6,0.7-0.9c0.1-0.3,0.2-0.6,0.2-0.9L-200.9,346.7L-200.9,346.7z"/>
	<path id="XMLID_121_" class="st0" d="M-190.6,340.8v1.8h-2.4v7.6c0,0.2,0,0.4,0.1,0.6c0,0.1,0.1,0.3,0.2,0.3
		c0.1,0.1,0.3,0.1,0.5,0.2c0.2,0,0.5,0,0.8,0h0.9v1.8h-1.5c-0.5,0-1,0-1.3-0.1c-0.4-0.1-0.7-0.2-0.9-0.4c-0.2-0.2-0.4-0.5-0.5-0.8
		c-0.1-0.3-0.2-0.8-0.2-1.4v-7.7h-2.1v-1.9h2.1v-3.6h2v3.6H-190.6z"/>
	<path id="XMLID_123_" class="st0" d="M-188.3,338.6v-2.4h2v2.4H-188.3z M-186.3,340.8V353h-2v-12.2H-186.3z"/>
	<path id="XMLID_126_" class="st0" d="M-179.8,353l-4.5-12.2h2.2l3.4,10.1l0,0l3.3-10.1h2.1l-4.4,12.2H-179.8L-179.8,353z"/>
	<path id="XMLID_128_" class="st0" d="M-160.6,353c-0.3,0.2-0.8,0.3-1.4,0.3c-0.5,0-0.9-0.1-1.2-0.4c-0.3-0.3-0.5-0.8-0.5-1.4
		c-0.5,0.7-1.2,1.1-1.9,1.4s-1.5,0.4-2.4,0.4c-0.5,0-1.1-0.1-1.6-0.2s-0.9-0.3-1.3-0.6c-0.4-0.3-0.6-0.6-0.9-1
		c-0.2-0.4-0.3-1-0.3-1.6c0-0.7,0.1-1.3,0.4-1.7c0.2-0.4,0.5-0.8,0.9-1.1c0.4-0.3,0.8-0.5,1.3-0.6s1-0.3,1.5-0.4s1.1-0.2,1.6-0.2
		s0.9-0.1,1.3-0.2c0.4-0.1,0.7-0.3,0.9-0.4c0.2-0.2,0.3-0.5,0.3-0.9s-0.1-0.8-0.2-1.1c-0.2-0.3-0.4-0.5-0.6-0.6
		c-0.3-0.1-0.5-0.2-0.9-0.3c-0.3,0-0.6-0.1-1-0.1c-0.8,0-1.6,0.2-2.1,0.5c-0.5,0.3-0.9,0.9-0.9,1.8h-2c0-0.8,0.2-1.4,0.5-1.9
		s0.7-0.9,1.1-1.3c0.5-0.3,1-0.6,1.6-0.7c0.6-0.1,1.3-0.2,1.9-0.2c0.5,0,1.1,0,1.6,0.1s1,0.2,1.5,0.5c0.4,0.2,0.8,0.6,1.1,1
		s0.4,1,0.4,1.7v6.2c0,0.5,0,0.8,0.1,1s0.2,0.3,0.6,0.3c0.2,0,0.4,0,0.6-0.1L-160.6,353L-160.6,353z M-163.9,346.7
		c-0.3,0.2-0.6,0.3-1,0.4s-0.8,0.2-1.3,0.2c-0.4,0.1-0.9,0.1-1.4,0.2s-0.9,0.2-1.2,0.3c-0.3,0.1-0.7,0.4-0.9,0.7s-0.3,0.7-0.3,1.2
		c0,0.3,0.1,0.6,0.2,0.8c0.1,0.2,0.3,0.4,0.5,0.6c0.2,0.1,0.5,0.2,0.7,0.3c0.3,0.1,0.6,0.1,0.9,0.1c0.7,0,1.2-0.1,1.7-0.3
		s0.9-0.4,1.2-0.7c0.3-0.3,0.5-0.6,0.7-0.9c0.1-0.3,0.2-0.6,0.2-0.9L-163.9,346.7L-163.9,346.7z"/>
</g>
<path id="XMLID_2_" class="st1" d="M-221.6,393.9c-48,0-87.1-39.1-87.1-87.1s39.1-87.1,87.1-87.1s87.1,39.1,87.1,87.1
	S-173.6,393.9-221.6,393.9z M-221.6,222.7c-46.4,0-84.1,37.7-84.1,84.1s37.7,84.1,84.1,84.1s84.1-37.7,84.1-84.1
	S-175.2,222.7-221.6,222.7z"/>
<path id="XMLID_100_" class="st0" d="M-230.7,287.7c-0.2,4.5,1.5,8.1,4.7,10c1.3,0.8,2.8,1.2,4.3,1.2s3-0.4,4.3-1.2
	c3.1-1.9,4.9-5.5,4.7-10c-0.2-5.6-4.8-8.3-9-8.4h-0.1C-225.9,279.4-230.5,282.1-230.7,287.7L-230.7,287.7z M-226.7,287.8
	c0.1-3.2,2.8-4.5,5.1-4.6c2.3,0.1,4.9,1.4,5.1,4.6c0.1,3-0.9,5.3-2.7,6.4c-1.4,0.8-3.2,0.8-4.6,0
	C-225.8,293.2-226.8,290.8-226.7,287.8L-226.7,287.8z M-199,287.7c-0.2,4.5,1.5,8.1,4.7,10c1.3,0.8,2.8,1.2,4.3,1.2s3-0.4,4.3-1.2
	c3.1-1.9,4.9-5.5,4.7-10c-0.2-5.6-4.8-8.3-9-8.4h-0.1C-194.2,279.4-198.8,282.1-199,287.7L-199,287.7z M-195,287.8
	c0.1-3.2,2.8-4.5,5.1-4.6c2.3,0.1,4.9,1.4,5.1,4.6c0.1,3-0.9,5.3-2.7,6.4c-1.4,0.8-3.2,0.8-4.6,0
	C-194.1,293.2-195.1,290.8-195,287.8L-195,287.8z M-210.2,260.2c1.3,0.8,2.8,1.2,4.3,1.2s3-0.4,4.3-1.2c3.1-1.9,4.9-5.5,4.7-10
	c-0.2-5.6-4.8-8.3-9-8.4h-0.1c-4.2,0.1-8.8,2.9-9,8.4C-215,254.6-213.3,258.3-210.2,260.2L-210.2,260.2z M-210.9,250.3
	c0.1-3.2,2.8-4.5,5.1-4.6c2.3,0.1,4.9,1.4,5.1,4.6c0.1,3-0.9,5.3-2.7,6.4c-1.4,0.8-3.2,0.8-4.6,0C-210,255.6-211,253.3-210.9,250.3
	L-210.9,250.3z M-257.8,297.7c1.3,0.8,2.8,1.2,4.3,1.2s3-0.4,4.3-1.2c3.1-1.9,4.9-5.5,4.7-10c-0.2-5.6-4.8-8.3-9-8.4h-0.1
	c-4.2,0.1-8.8,2.9-9,8.4C-262.6,292.2-260.9,295.8-257.8,297.7L-257.8,297.7z M-258.5,287.8c0.1-3.2,2.8-4.5,5.1-4.6
	c2.3,0.1,4.9,1.4,5.1,4.6c0.1,3-0.9,5.3-2.7,6.4c-1.4,0.8-3.2,0.8-4.6,0C-257.6,293.2-258.6,290.8-258.5,287.8L-258.5,287.8z
	 M-209.1,319.6c0.2,1.1-0.5,2.1-1.6,2.3c-0.1,0-0.2,0-0.4,0c-0.9,0-1.8-0.7-2-1.6l-1.8-9.5c-0.6-3.3-3.9-4.7-6.9-4.7
	s-6.3,1.5-6.9,4.7l-1.3,7.2h9.1c1.1,0,2,0.9,2,2c0,1.1-0.9,2-2,2h-11.4c-0.6,0-1.2-0.3-1.5-0.8c-0.4-0.5-0.5-1.1-0.4-1.7l1.8-9.5
	c1-5.5,6.2-8,10.8-8s9.8,2.5,10.8,8L-209.1,319.6z M-205.8,269c-3,0-6.3,1.5-6.9,4.7c-0.2,1.1-1.2,1.8-2.3,1.6
	c-1.1-0.2-1.8-1.2-1.6-2.3c1-5.5,6.2-8,10.8-8c4.6,0,9.8,2.5,10.8,8c0.2,1.1-0.5,2.1-1.6,2.3c-0.1,0-0.2,0-0.4,0
	c-0.9,0-1.8-0.7-2-1.6C-199.5,270.5-202.8,269-205.8,269L-205.8,269z M-179,322c-0.1,0-0.2,0-0.4,0c-0.9,0-1.8-0.7-2-1.6l-1.8-9.5
	c-0.6-3.3-3.9-4.7-6.9-4.7s-6.3,1.5-6.9,4.7l-1.3,7.2h9.1c1.1,0,2,0.9,2,2s-0.9,2-2,2h-11.5c-0.6,0-1.2-0.3-1.5-0.8
	c-0.4-0.5-0.5-1.1-0.4-1.7l1.8-9.5c1-5.5,6.2-8,10.8-8s9.8,2.5,10.8,8l1.8,9.5C-177.2,320.7-177.9,321.8-179,322L-179,322z
	 M-241.9,260.2c1.3,0.8,2.8,1.2,4.3,1.2s3-0.4,4.3-1.2c3.1-1.9,4.9-5.5,4.7-10c-0.2-5.6-4.8-8.3-9-8.4h-0.1c-4.2,0.1-8.8,2.9-9,8.4
	C-246.8,254.6-245,258.3-241.9,260.2L-241.9,260.2z M-242.6,250.3c0.1-3.2,2.8-4.5,5.1-4.6c2.3,0.1,4.9,1.4,5.1,4.6
	c0.1,3-0.9,5.3-2.7,6.4c-1.4,0.8-3.2,0.8-4.6,0C-241.7,255.6-242.7,253.3-242.6,250.3L-242.6,250.3z M-240.9,319.6
	c0.2,1.1-0.5,2.1-1.6,2.3c-0.1,0-0.2,0-0.4,0c-0.9,0-1.8-0.7-2-1.6l-1.8-9.5c-0.6-3.3-3.9-4.7-6.9-4.7s-6.3,1.5-6.9,4.7l-1.3,7.2
	h9.8c1.1,0,2,0.9,2,2c0,1.1-0.9,2-2,2h-12c-0.6,0-1.2-0.3-1.5-0.8c-0.4-0.5-0.5-1.1-0.4-1.7l1.8-9.5c1-5.5,6.2-8,10.8-8
	s9.8,2.5,10.8,8L-240.9,319.6z M-237.6,269c-3,0-6.3,1.5-6.9,4.7c-0.2,1.1-1.2,1.8-2.3,1.6c-1.1-0.2-1.8-1.2-1.6-2.3
	c1-5.5,6.2-8,10.8-8c4.6,0,9.8,2.5,10.8,8c0.2,1.1-0.5,2.1-1.6,2.3c-0.1,0-0.2,0-0.4,0c-0.9,0-1.8-0.7-2-1.6
	C-231.3,270.5-234.6,269-237.6,269L-237.6,269z"/>
</svg>
