<?xml version="1.0" encoding="utf-8"?>
<!-- Generator: Adobe Illustrator 19.0.0, SVG Export Plug-In . SVG Version: 6.00 Build 0)  -->
<svg version="1.1" id="Capa_1" xmlns="http://www.w3.org/2000/svg" xmlns:xlink="http://www.w3.org/1999/xlink" x="0px" y="0px"
	 viewBox="0 0 174.2 174.2" style="enable-background:new 0 0 174.2 174.2;" xml:space="preserve">
<style type="text/css">
	.st0{fill:#2E3450;}
	.st1{fill:#E24412;}
</style>
<g id="XMLID_9_">
	<path id="XMLID_11_" class="st0" d="M93.2,85.5H52.8c-3.4,0-6.1,2.7-6.1,6.1v11h52.5v-11C99.2,88.2,96.5,85.5,93.2,85.5z"/>
	<path id="XMLID_10_" class="st0" d="M126.5,86.4L89.6,49.5l7.1-7.1c1.2,1,3,1,4.1-0.1c1.2-1.2,1.2-3.1,0-4.2L85.4,22.7
		c-1.2-1.2-3.1-1.2-4.2,0c-1.2,1.2-1.2,3.1,0,4.2l-0.1-0.1L61.6,46.3l0.1,0.1c-1.2-1.2-3.1-1.2-4.2,0c-1.2,1.2-1.2,3.1,0,4.2
		L72.8,66c1.2,1.2,3.1,1.2,4.2,0c1.2-1.2,1.2-3.1,0-4.2l0.1,0.1l7.1-7.1l36.9,36.9c1.5,1.5,3.8,1.5,5.3,0
		C127.9,90.2,127.9,87.8,126.5,86.4z"/>
</g>
<path id="XMLID_2_" class="st1" d="M87.1,174.2c-48,0-87.1-39.1-87.1-87.1C0,39.1,39.1,0,87.1,0c48,0,87.1,39.1,87.1,87.1
	C174.2,135.2,135.2,174.2,87.1,174.2z M87.1,3C40.7,3,3,40.7,3,87.1c0,46.4,37.7,84.1,84.1,84.1c46.4,0,84.1-37.7,84.1-84.1
	C171.2,40.7,133.5,3,87.1,3z"/>
<g id="XMLID_6_">
	<path id="XMLID_12_" class="st0" d="M64,115.9v2.4H52.6v6.9h10v2.4h-10v10h-2.9v-21.9H64z"/>
	<path id="XMLID_14_" class="st0" d="M67,119.1v-3.2h2.6v3.2H67z M69.6,122v15.8H67V122H69.6z"/>
	<path id="XMLID_17_" class="st0" d="M75.6,134.3c0.2,0.4,0.6,0.7,1,0.9c0.4,0.2,0.8,0.4,1.3,0.5c0.5,0.1,1,0.2,1.5,0.2
		c0.4,0,0.8,0,1.3-0.1c0.4-0.1,0.9-0.2,1.2-0.3c0.4-0.2,0.7-0.4,0.9-0.7c0.2-0.3,0.4-0.7,0.4-1.2c0-0.7-0.3-1.2-0.8-1.5
		c-0.5-0.3-1.1-0.6-1.9-0.8c-0.8-0.2-1.6-0.4-2.5-0.6c-0.9-0.2-1.7-0.4-2.5-0.7c-0.8-0.3-1.4-0.8-1.9-1.3c-0.5-0.6-0.8-1.4-0.8-2.4
		c0-0.8,0.2-1.5,0.5-2.1c0.4-0.6,0.8-1,1.4-1.4c0.6-0.4,1.2-0.6,1.9-0.8c0.7-0.2,1.4-0.3,2.1-0.3c0.9,0,1.7,0.1,2.5,0.2
		c0.8,0.2,1.4,0.4,2,0.8c0.6,0.4,1,0.9,1.4,1.5c0.3,0.6,0.6,1.4,0.6,2.4h-2.6c0-0.5-0.2-0.9-0.4-1.3c-0.2-0.3-0.5-0.6-0.9-0.8
		c-0.3-0.2-0.7-0.4-1.1-0.4c-0.4-0.1-0.8-0.1-1.3-0.1c-0.4,0-0.8,0-1.2,0.1c-0.4,0.1-0.8,0.2-1.1,0.3c-0.3,0.2-0.6,0.4-0.8,0.6
		c-0.2,0.3-0.3,0.6-0.3,1c0,0.4,0.2,0.8,0.5,1.1c0.3,0.3,0.7,0.5,1.2,0.7c0.5,0.2,1,0.4,1.7,0.5c0.6,0.1,1.2,0.3,1.8,0.4
		c0.7,0.1,1.3,0.3,1.9,0.5c0.6,0.2,1.2,0.5,1.7,0.8c0.5,0.3,0.9,0.8,1.2,1.3c0.3,0.5,0.4,1.1,0.4,1.9c0,1-0.2,1.8-0.6,2.4
		c-0.4,0.6-0.9,1.1-1.6,1.5c-0.6,0.4-1.4,0.7-2.2,0.8c-0.8,0.2-1.6,0.2-2.4,0.2c-0.9,0-1.7-0.1-2.5-0.3c-0.8-0.2-1.5-0.5-2.1-0.9
		c-0.6-0.4-1.1-1-1.5-1.7s-0.6-1.5-0.6-2.5h2.6C75.2,133.4,75.4,133.9,75.6,134.3z"/>
	<path id="XMLID_19_" class="st0" d="M98.4,124.7c-0.7-0.6-1.5-0.8-2.6-0.8c-0.9,0-1.7,0.2-2.4,0.5c-0.6,0.3-1.1,0.8-1.5,1.4
		c-0.4,0.6-0.6,1.2-0.8,2c-0.2,0.7-0.2,1.5-0.2,2.3c0,0.7,0.1,1.4,0.3,2.1c0.2,0.7,0.4,1.3,0.8,1.9c0.4,0.5,0.8,1,1.4,1.3
		c0.6,0.3,1.3,0.5,2.1,0.5c1.3,0,2.3-0.3,3-1c0.7-0.7,1.2-1.6,1.3-2.8h2.7c-0.3,2-1,3.5-2.2,4.5c-1.2,1.1-2.8,1.6-4.8,1.6
		c-1.2,0-2.3-0.2-3.2-0.6c-0.9-0.4-1.7-0.9-2.3-1.7c-0.6-0.7-1.1-1.6-1.4-2.6c-0.3-1-0.5-2.1-0.5-3.3c0-1.2,0.2-2.3,0.5-3.3
		c0.3-1,0.8-1.9,1.4-2.7c0.6-0.8,1.4-1.4,2.3-1.8c0.9-0.4,2-0.7,3.3-0.7c0.9,0,1.7,0.1,2.5,0.3c0.8,0.2,1.5,0.5,2.1,1
		c0.6,0.5,1.1,1,1.5,1.7c0.4,0.7,0.6,1.5,0.7,2.4h-2.7C99.5,126,99,125.3,98.4,124.7z"/>
	<path id="XMLID_21_" class="st0" d="M119.4,137.7c-0.5,0.3-1.1,0.4-1.9,0.4c-0.7,0-1.2-0.2-1.6-0.6c-0.4-0.4-0.6-1-0.6-1.9
		c-0.7,0.9-1.5,1.5-2.5,1.9c-0.9,0.4-2,0.6-3.1,0.6c-0.7,0-1.4-0.1-2-0.2c-0.6-0.2-1.2-0.4-1.7-0.8c-0.5-0.3-0.8-0.8-1.1-1.4
		c-0.3-0.6-0.4-1.2-0.4-2c0-0.9,0.2-1.6,0.5-2.2c0.3-0.6,0.7-1,1.2-1.4c0.5-0.4,1.1-0.6,1.7-0.8c0.6-0.2,1.3-0.3,2-0.5
		c0.7-0.1,1.4-0.3,2-0.3c0.6-0.1,1.2-0.2,1.7-0.3c0.5-0.1,0.9-0.3,1.2-0.6c0.3-0.3,0.4-0.6,0.4-1.1c0-0.6-0.1-1-0.3-1.4
		c-0.2-0.3-0.5-0.6-0.8-0.8c-0.3-0.2-0.7-0.3-1.1-0.4c-0.4-0.1-0.8-0.1-1.2-0.1c-1.1,0-2,0.2-2.8,0.6c-0.7,0.4-1.1,1.2-1.2,2.4h-2.6
		c0-1,0.2-1.8,0.6-2.5c0.4-0.7,0.9-1.2,1.5-1.6c0.6-0.4,1.3-0.7,2.1-0.9c0.8-0.2,1.6-0.3,2.5-0.3c0.7,0,1.4,0.1,2.1,0.2
		c0.7,0.1,1.3,0.3,1.9,0.6c0.6,0.3,1,0.8,1.4,1.3c0.3,0.6,0.5,1.3,0.5,2.2v8.1c0,0.6,0,1.1,0.1,1.3c0.1,0.3,0.3,0.4,0.7,0.4
		c0.2,0,0.5,0,0.8-0.1V137.7z M115.2,129.6c-0.3,0.2-0.8,0.4-1.3,0.5c-0.5,0.1-1.1,0.2-1.7,0.3c-0.6,0.1-1.2,0.2-1.8,0.2
		c-0.6,0.1-1.1,0.2-1.6,0.4c-0.5,0.2-0.9,0.5-1.1,0.9c-0.3,0.4-0.4,0.9-0.4,1.5c0,0.4,0.1,0.8,0.3,1.1c0.2,0.3,0.4,0.5,0.7,0.7
		c0.3,0.2,0.6,0.3,1,0.4c0.4,0.1,0.8,0.1,1.2,0.1c0.9,0,1.6-0.1,2.2-0.4c0.6-0.2,1.1-0.5,1.5-0.9c0.4-0.4,0.7-0.7,0.9-1.2
		c0.2-0.4,0.3-0.8,0.3-1.2V129.6z"/>
	<path id="XMLID_24_" class="st0" d="M124.6,115.9v21.9H122v-21.9H124.6z"/>
</g>
</svg>
