<?xml version="1.0" encoding="utf-8"?>
<!-- Generator: Adobe Illustrator 19.0.0, SVG Export Plug-In . SVG Version: 6.00 Build 0)  -->
<svg version="1.1" id="Capa_1" xmlns="http://www.w3.org/2000/svg" xmlns:xlink="http://www.w3.org/1999/xlink" x="0px" y="0px"
	 viewBox="-872 453.8 174.2 174.2" style="enable-background:new -872 453.8 174.2 174.2;" xml:space="preserve">
<style type="text/css">
	.st0{fill:#E24412;}
	.st1{fill:#2E3450;}
</style>
<path id="XMLID_49_" class="st0" d="M-784.9,628c-48,0-87.1-39.1-87.1-87.1s39.1-87.1,87.1-87.1s87.1,39.1,87.1,87.1
	C-697.7,588.9-736.8,628-784.9,628z M-784.9,456.8c-46.4,0-84.1,37.7-84.1,84.1c0,46.4,37.7,84.1,84.1,84.1s84.1-37.7,84.1-84.1
	C-700.7,494.5-738.5,456.8-784.9,456.8z"/>
<g id="XMLID_2_">
	<path id="XMLID_3_" class="st1" d="M-749.7,514v-1.6h3c0.8,0,1.4-0.6,1.4-1.4v-4.5h1.6c0.8,0,1.4-0.6,1.4-1.4v-4.4
		c0-0.5-0.3-1-0.7-1.2l-41.2-23.4c-0.4-0.2-0.9-0.2-1.4,0l-41.1,23.5c-0.4,0.2-0.7,0.7-0.7,1.2v4.4c0,0.8,0.6,1.4,1.4,1.4h1.6v4.5
		c0,0.8,0.6,1.4,1.4,1.4h3v1.6c0,1.1,0.6,2,1.5,2.5v25.5h-4.5c-0.8,0-1.4,0.6-1.4,1.4v4.4h-1.6c-0.8,0-1.4,0.6-1.4,1.4v5.9
		c0,0.8,0.6,1.4,1.4,1.4h82.3c0.8,0,1.4-0.6,1.4-1.4v-5.9c0-0.8-0.6-1.4-1.4-1.4h-1.6v-4.5c0-0.8-0.6-1.4-1.4-1.4h-4.5v-25.5
		C-750.3,516-749.7,515.1-749.7,514L-749.7,514z M-752.4,514C-752.4,514.1-752.5,514.1-752.4,514l-6,0.1c-0.1,0-0.1,0-0.1-0.1v-1.6
		h6.1V514z M-765.8,542v-25.5c0.9-0.5,1.5-1.4,1.5-2.5v-1.6h3.1v1.6c0,1.1,0.6,2,1.5,2.5V542H-765.8z M-771.7,542v-25.1h3.1v25.2
		L-771.7,542L-771.7,542z M-780.5,542v-25.5c0.9-0.5,1.5-1.4,1.5-2.5v-1.6h3.1v1.6c0,1.1,0.6,2,1.5,2.5V542H-780.5z M-786.4,542
		v-25.1h3.1v25.2L-786.4,542L-786.4,542z M-795.2,542v-25.5c0.9-0.5,1.5-1.4,1.5-2.5v-1.6h3.1v1.6c0,1.1,0.6,2,1.5,2.5V542H-795.2z
		 M-801.1,542v-25.1h3.1v25.2L-801.1,542L-801.1,542z M-809.9,542v-25.5c0.9-0.5,1.5-1.4,1.5-2.5v-1.6h3.1v1.6c0,1.1,0.6,2,1.5,2.5
		V542H-809.9z M-796.5,512.5v1.6c0,0.1,0,0.1-0.1,0.1h-5.9c-0.1,0-0.1,0-0.1-0.1v-1.6H-796.5z M-781.8,512.5v1.6
		c0,0.1,0,0.1-0.1,0.1h-5.9c-0.1,0-0.1,0-0.1-0.1v-1.6H-781.8z M-767.1,512.5v1.6c0,0.1,0,0.1-0.1,0.1h-5.9c-0.1,0-0.1,0-0.1-0.1
		v-1.6H-767.1z M-824.7,501.6l39.8-22.7l39.8,22.7v2.2h-79.6V501.6z M-821.7,506.6h73.7v3.1h-73.7V506.6z M-811.2,512.5v1.6
		c0,0.1,0,0.1-0.1,0.1h-5.9c-0.1,0-0.1,0-0.1-0.1v-1.6H-811.2z M-815.8,516.9h3.1v25.2h-3.1V516.9z M-745.1,553.8h-79.6v-3.1h79.6
		V553.8z M-748,547.9h-73.7v-3.1h73.7V547.9z M-757,542v-25.1h3.1v25.2L-757,542L-757,542z"/>
</g>
<g id="XMLID_7_">
	<path id="XMLID_98_" class="st1" d="M-840,587.3c-0.8,0.3-1.6,0.5-2.3,0.5c-1,0-1.9-0.2-2.7-0.6c-0.8-0.4-1.5-0.9-2-1.5
		c-0.6-0.6-1-1.3-1.3-2.2c-0.3-0.8-0.4-1.7-0.4-2.5c0-1,0.1-1.9,0.4-2.8c0.3-0.9,0.7-1.7,1.2-2.3c0.5-0.7,1.2-1.2,2-1.6
		c0.8-0.4,1.7-0.6,2.8-0.6c0.7,0,1.4,0.1,2.1,0.3c0.6,0.2,1.2,0.4,1.7,0.8c0.5,0.4,0.9,0.8,1.3,1.4c0.3,0.6,0.6,1.2,0.7,2h-1.8
		c-0.1-0.5-0.3-1-0.5-1.3c-0.2-0.4-0.5-0.7-0.9-0.9c-0.4-0.2-0.7-0.4-1.2-0.5c-0.4-0.1-0.9-0.2-1.4-0.2c-0.8,0-1.5,0.2-2.1,0.5
		c-0.6,0.3-1.1,0.8-1.4,1.3c-0.4,0.5-0.6,1.1-0.8,1.8c-0.2,0.7-0.3,1.4-0.3,2.1c0,0.7,0.1,1.4,0.3,2c0.2,0.6,0.5,1.2,0.9,1.7
		c0.4,0.5,0.9,0.9,1.4,1.2c0.6,0.3,1.2,0.4,2,0.4c0.7,0,1.3-0.1,1.9-0.3c0.5-0.2,1-0.5,1.4-0.9c0.4-0.4,0.6-0.9,0.8-1.4
		c0.2-0.5,0.3-1.1,0.2-1.7h-4.3v-1.5h5.9v7.1h-1.1l-0.5-1.7C-838.5,586.5-839.2,587-840,587.3z"/>
	<path id="XMLID_101_" class="st1" d="M-827.5,587.5v-1.5h0c-0.3,0.6-0.8,1-1.3,1.3c-0.5,0.3-1.1,0.4-1.9,0.4
		c-0.6,0-1.2-0.1-1.6-0.3c-0.4-0.2-0.8-0.4-1-0.7c-0.3-0.3-0.4-0.7-0.6-1.1c-0.1-0.4-0.2-0.9-0.2-1.4v-6.4h1.6v6.6
		c0,0.6,0.2,1.1,0.5,1.4c0.3,0.3,0.8,0.5,1.4,0.5c0.5,0,0.9-0.1,1.3-0.2c0.4-0.1,0.7-0.4,0.9-0.6c0.2-0.3,0.4-0.6,0.5-1
		c0.1-0.4,0.2-0.8,0.2-1.2v-5.5h1.6v9.7H-827.5z"/>
	<path id="XMLID_131_" class="st1" d="M-822,574.1v5h0c0.3-0.5,0.7-0.9,1.2-1.2c0.6-0.2,1.2-0.4,1.9-0.4c0.8,0,1.4,0.1,2,0.4
		c0.6,0.3,1,0.6,1.4,1.1c0.4,0.5,0.6,1,0.8,1.6c0.2,0.6,0.3,1.3,0.3,2c0,0.7-0.1,1.3-0.3,2c-0.2,0.6-0.5,1.1-0.8,1.6
		s-0.8,0.8-1.4,1.1c-0.6,0.3-1.2,0.4-1.9,0.4c-0.2,0-0.5,0-0.8-0.1c-0.3-0.1-0.6-0.1-0.9-0.2c-0.3-0.1-0.6-0.3-0.8-0.5
		c-0.3-0.2-0.5-0.4-0.6-0.7h0v1.3h-1.6v-13.4H-822z M-816.2,581.2c-0.1-0.4-0.3-0.8-0.5-1.2c-0.2-0.3-0.6-0.6-0.9-0.8
		s-0.8-0.3-1.3-0.3c-0.5,0-1,0.1-1.4,0.3c-0.4,0.2-0.7,0.5-0.9,0.8c-0.2,0.3-0.4,0.7-0.5,1.2c-0.1,0.4-0.2,0.9-0.2,1.3
		c0,0.5,0.1,0.9,0.2,1.4c0.1,0.4,0.3,0.8,0.5,1.2c0.2,0.3,0.6,0.6,0.9,0.8c0.4,0.2,0.9,0.3,1.4,0.3c0.5,0,1-0.1,1.4-0.3
		s0.7-0.5,0.9-0.8c0.2-0.3,0.4-0.8,0.5-1.2c0.1-0.5,0.2-0.9,0.2-1.4C-816,582.1-816.1,581.6-816.2,581.2z"/>
	<path id="XMLID_134_" class="st1" d="M-805.6,586.8c-0.7,0.6-1.6,0.8-2.7,0.8c-0.8,0-1.4-0.1-2-0.4c-0.6-0.2-1-0.6-1.4-1.1
		c-0.4-0.5-0.7-1-0.9-1.6c-0.2-0.6-0.3-1.3-0.3-2c0-0.7,0.1-1.4,0.3-2c0.2-0.6,0.5-1.1,0.9-1.6c0.4-0.5,0.9-0.8,1.4-1.1
		c0.6-0.2,1.2-0.4,1.8-0.4c0.9,0,1.6,0.2,2.1,0.5c0.6,0.4,1,0.8,1.4,1.4c0.3,0.5,0.6,1.2,0.7,1.8c0.1,0.7,0.2,1.3,0.2,1.9h-7.3
		c0,0.4,0,0.8,0.1,1.2c0.1,0.4,0.3,0.7,0.5,1c0.2,0.3,0.6,0.5,1,0.7s0.8,0.3,1.4,0.3c0.7,0,1.2-0.2,1.7-0.5c0.4-0.3,0.7-0.8,0.9-1.4
		h1.6C-804.4,585.5-804.9,586.3-805.6,586.8z M-806,580.6c-0.1-0.3-0.3-0.6-0.6-0.9c-0.2-0.2-0.5-0.4-0.9-0.6
		c-0.3-0.1-0.7-0.2-1.1-0.2c-0.4,0-0.8,0.1-1.1,0.2c-0.3,0.1-0.6,0.3-0.9,0.6c-0.2,0.3-0.4,0.5-0.6,0.9c-0.1,0.3-0.2,0.7-0.2,1.1
		h5.6C-805.8,581.3-805.9,580.9-806,580.6z"/>
	<path id="XMLID_137_" class="st1" d="M-801,577.8v2h0c0.4-0.8,0.9-1.4,1.4-1.7c0.6-0.4,1.3-0.6,2.1-0.5v1.7c-0.6,0-1.2,0.1-1.6,0.3
		c-0.5,0.2-0.8,0.4-1.1,0.8c-0.3,0.3-0.5,0.7-0.6,1.2c-0.1,0.5-0.2,1-0.2,1.7v4.3h-1.6v-9.7H-801z"/>
	<path id="XMLID_139_" class="st1" d="M-794.3,577.8v1.5h0c0.7-1.2,1.7-1.8,3.2-1.8c0.6,0,1.2,0.1,1.6,0.3c0.4,0.2,0.8,0.4,1,0.7
		c0.3,0.3,0.4,0.7,0.6,1.1c0.1,0.4,0.2,0.9,0.2,1.4v6.4h-1.6v-6.6c0-0.6-0.2-1.1-0.5-1.4c-0.4-0.3-0.8-0.5-1.4-0.5
		c-0.5,0-0.9,0.1-1.3,0.2c-0.4,0.1-0.7,0.4-0.9,0.6c-0.2,0.3-0.4,0.6-0.5,1c-0.1,0.4-0.2,0.8-0.2,1.2v5.5h-1.6v-9.7H-794.3z"/>
	<path id="XMLID_141_" class="st1" d="M-776.8,587.4c-0.3,0.2-0.7,0.2-1.1,0.2c-0.4,0-0.7-0.1-1-0.3c-0.2-0.2-0.4-0.6-0.4-1.1
		c-0.4,0.5-0.9,0.9-1.5,1.1c-0.6,0.2-1.2,0.3-1.9,0.3c-0.4,0-0.9-0.1-1.2-0.1c-0.4-0.1-0.7-0.3-1-0.5c-0.3-0.2-0.5-0.5-0.7-0.8
		c-0.2-0.3-0.3-0.8-0.3-1.2c0-0.6,0.1-1,0.3-1.4c0.2-0.3,0.4-0.6,0.7-0.9c0.3-0.2,0.7-0.4,1.1-0.5c0.4-0.1,0.8-0.2,1.2-0.3
		c0.4-0.1,0.9-0.2,1.2-0.2c0.4,0,0.7-0.1,1-0.2s0.5-0.2,0.7-0.4c0.2-0.2,0.3-0.4,0.3-0.7c0-0.3-0.1-0.6-0.2-0.8s-0.3-0.4-0.5-0.5
		c-0.2-0.1-0.4-0.2-0.7-0.2c-0.3,0-0.5-0.1-0.8-0.1c-0.7,0-1.2,0.1-1.7,0.4s-0.7,0.7-0.7,1.5h-1.6c0-0.6,0.2-1.1,0.4-1.5
		s0.5-0.7,0.9-1c0.4-0.3,0.8-0.4,1.3-0.6c0.5-0.1,1-0.2,1.5-0.2c0.4,0,0.9,0,1.3,0.1c0.4,0.1,0.8,0.2,1.2,0.4
		c0.4,0.2,0.6,0.5,0.8,0.8c0.2,0.3,0.3,0.8,0.3,1.4v5c0,0.4,0,0.6,0.1,0.8c0,0.2,0.2,0.3,0.4,0.3c0.1,0,0.3,0,0.5-0.1V587.4z
		 M-779.4,582.4c-0.2,0.1-0.5,0.3-0.8,0.3s-0.7,0.1-1,0.2c-0.4,0-0.7,0.1-1.1,0.1c-0.4,0.1-0.7,0.1-1,0.3c-0.3,0.1-0.5,0.3-0.7,0.5
		c-0.2,0.2-0.3,0.5-0.3,0.9c0,0.3,0.1,0.5,0.2,0.7c0.1,0.2,0.2,0.3,0.4,0.4c0.2,0.1,0.4,0.2,0.6,0.2c0.2,0,0.5,0.1,0.7,0.1
		c0.5,0,1-0.1,1.4-0.2c0.4-0.1,0.7-0.3,0.9-0.5c0.2-0.2,0.4-0.5,0.5-0.7c0.1-0.3,0.2-0.5,0.2-0.7V582.4z"/>
	<path id="XMLID_144_" class="st1" d="M-773.8,577.8v1.4h0c0.7-1.1,1.8-1.7,3.1-1.7c0.6,0,1.1,0.1,1.6,0.4c0.5,0.3,0.8,0.7,1,1.3
		c0.3-0.5,0.8-0.9,1.3-1.2c0.5-0.3,1.1-0.4,1.8-0.4c0.5,0,0.9,0.1,1.3,0.2c0.4,0.1,0.7,0.3,1,0.5c0.3,0.2,0.5,0.5,0.7,0.9
		c0.2,0.4,0.2,0.8,0.2,1.3v7.1h-1.6v-6.4c0-0.3,0-0.6-0.1-0.8c-0.1-0.3-0.1-0.5-0.3-0.7c-0.1-0.2-0.3-0.3-0.6-0.5
		c-0.2-0.1-0.6-0.2-0.9-0.2c-0.8,0-1.4,0.2-1.9,0.7c-0.4,0.5-0.7,1.1-0.7,1.8v6h-1.6v-6.4c0-0.3,0-0.6-0.1-0.9
		c-0.1-0.3-0.2-0.5-0.3-0.7c-0.1-0.2-0.3-0.3-0.6-0.5c-0.2-0.1-0.5-0.2-0.9-0.2c-0.5,0-0.9,0.1-1.2,0.3c-0.3,0.2-0.6,0.4-0.8,0.7
		c-0.2,0.3-0.4,0.5-0.5,0.8c-0.1,0.3-0.1,0.5-0.1,0.7v6h-1.6v-9.7H-773.8z"/>
	<path id="XMLID_146_" class="st1" d="M-752.4,586.8c-0.7,0.6-1.6,0.8-2.7,0.8c-0.8,0-1.4-0.1-2-0.4c-0.6-0.2-1-0.6-1.4-1.1
		c-0.4-0.5-0.7-1-0.9-1.6c-0.2-0.6-0.3-1.3-0.3-2c0-0.7,0.1-1.4,0.3-2c0.2-0.6,0.5-1.1,0.9-1.6c0.4-0.5,0.9-0.8,1.4-1.1
		c0.6-0.2,1.2-0.4,1.8-0.4c0.9,0,1.6,0.2,2.1,0.5c0.6,0.4,1,0.8,1.4,1.4c0.3,0.5,0.6,1.2,0.7,1.8c0.1,0.7,0.2,1.3,0.2,1.9h-7.3
		c0,0.4,0,0.8,0.2,1.2c0.1,0.4,0.3,0.7,0.5,1c0.3,0.3,0.6,0.5,1,0.7c0.4,0.2,0.8,0.3,1.4,0.3c0.7,0,1.2-0.2,1.7-0.5
		c0.4-0.3,0.7-0.8,0.9-1.4h1.6C-751.2,585.5-751.7,586.3-752.4,586.8z M-752.8,580.6c-0.1-0.3-0.3-0.6-0.6-0.9
		c-0.2-0.2-0.5-0.4-0.9-0.6c-0.3-0.1-0.7-0.2-1.1-0.2c-0.4,0-0.8,0.1-1.1,0.2c-0.3,0.1-0.6,0.3-0.9,0.6c-0.2,0.3-0.4,0.5-0.6,0.9
		c-0.1,0.3-0.2,0.7-0.2,1.1h5.6C-752.6,581.3-752.7,580.9-752.8,580.6z"/>
	<path id="XMLID_149_" class="st1" d="M-747.7,577.8v1.5h0c0.7-1.2,1.7-1.8,3.2-1.8c0.6,0,1.2,0.1,1.6,0.3c0.4,0.2,0.8,0.4,1,0.7
		c0.3,0.3,0.4,0.7,0.6,1.1c0.1,0.4,0.2,0.9,0.2,1.4v6.4h-1.6v-6.6c0-0.6-0.2-1.1-0.5-1.4c-0.3-0.3-0.8-0.5-1.4-0.5
		c-0.5,0-0.9,0.1-1.3,0.2c-0.4,0.1-0.7,0.4-0.9,0.6c-0.2,0.3-0.4,0.6-0.5,1c-0.1,0.4-0.2,0.8-0.2,1.2v5.5h-1.6v-9.7H-747.7z"/>
	<path id="XMLID_151_" class="st1" d="M-734.6,577.8v1.4h-1.9v6c0,0.2,0,0.3,0,0.5c0,0.1,0.1,0.2,0.2,0.3c0.1,0.1,0.2,0.1,0.4,0.1
		c0.2,0,0.4,0,0.6,0h0.7v1.4h-1.2c-0.4,0-0.8,0-1.1-0.1c-0.3-0.1-0.5-0.2-0.7-0.3c-0.2-0.1-0.3-0.4-0.4-0.6s-0.1-0.6-0.1-1.1v-6.2
		h-1.7v-1.4h1.7v-2.9h1.6v2.9H-734.6z"/>
	<path id="XMLID_153_" class="st1" d="M-724.3,587.4c-0.3,0.2-0.7,0.2-1.1,0.2c-0.4,0-0.7-0.1-1-0.3c-0.2-0.2-0.4-0.6-0.4-1.1
		c-0.4,0.5-0.9,0.9-1.5,1.1c-0.6,0.2-1.2,0.3-1.9,0.3c-0.4,0-0.9-0.1-1.2-0.1c-0.4-0.1-0.7-0.3-1-0.5c-0.3-0.2-0.5-0.5-0.7-0.8
		c-0.2-0.3-0.3-0.8-0.3-1.2c0-0.6,0.1-1,0.3-1.4c0.2-0.3,0.4-0.6,0.7-0.9c0.3-0.2,0.7-0.4,1.1-0.5c0.4-0.1,0.8-0.2,1.2-0.3
		c0.4-0.1,0.9-0.2,1.2-0.2c0.4,0,0.7-0.1,1-0.2c0.3-0.1,0.5-0.2,0.7-0.4c0.2-0.2,0.3-0.4,0.3-0.7c0-0.3-0.1-0.6-0.2-0.8
		c-0.1-0.2-0.3-0.4-0.5-0.5c-0.2-0.1-0.4-0.2-0.7-0.2c-0.3,0-0.5-0.1-0.8-0.1c-0.7,0-1.2,0.1-1.7,0.4s-0.7,0.7-0.7,1.5h-1.6
		c0-0.6,0.1-1.1,0.4-1.5c0.2-0.4,0.5-0.7,0.9-1c0.4-0.3,0.8-0.4,1.3-0.6c0.5-0.1,1-0.2,1.5-0.2c0.4,0,0.9,0,1.3,0.1
		c0.4,0.1,0.8,0.2,1.2,0.4c0.3,0.2,0.6,0.5,0.8,0.8c0.2,0.3,0.3,0.8,0.3,1.4v5c0,0.4,0,0.6,0.1,0.8c0,0.2,0.2,0.3,0.4,0.3
		c0.1,0,0.3,0,0.5-0.1V587.4z M-726.9,582.4c-0.2,0.1-0.5,0.3-0.8,0.3c-0.3,0.1-0.7,0.1-1,0.2c-0.4,0-0.7,0.1-1.1,0.1
		c-0.4,0.1-0.7,0.1-1,0.3c-0.3,0.1-0.5,0.3-0.7,0.5c-0.2,0.2-0.3,0.5-0.3,0.9c0,0.3,0.1,0.5,0.2,0.7c0.1,0.2,0.2,0.3,0.4,0.4
		c0.2,0.1,0.4,0.2,0.6,0.2c0.2,0,0.5,0.1,0.7,0.1c0.5,0,1-0.1,1.4-0.2s0.7-0.3,0.9-0.5c0.2-0.2,0.4-0.5,0.5-0.7
		c0.1-0.3,0.2-0.5,0.2-0.7V582.4z"/>
	<path id="XMLID_156_" class="st1" d="M-721.1,574.1v13.4h-1.6v-13.4H-721.1z"/>
</g>
</svg>
