<?xml version="1.0" encoding="utf-8"?>
<!-- Generator: Adobe Illustrator 19.0.0, SVG Export Plug-In . SVG Version: 6.00 Build 0)  -->
<svg version="1.1" id="Capa_1" xmlns="http://www.w3.org/2000/svg" xmlns:xlink="http://www.w3.org/1999/xlink" x="0px" y="0px"
	 viewBox="-308 219.8 174.2 174.2" style="enable-background:new -308 219.8 174.2 174.2;" xml:space="preserve">
<style type="text/css">
	.st0{fill:#2E3450;}
	.st1{fill:#E24412;}
</style>
<path id="XMLID_79_" class="st0" d="M-274.8,335.6v15.2h9v1.9h-11.3v-17.1C-277.1,335.6-274.8,335.6-274.8,335.6z"/>
<path id="XMLID_53_" class="st0" d="M-255.3,352c-0.9,0.7-2.1,1.1-3.5,1.1c-1,0-1.8-0.2-2.6-0.5c-0.7-0.3-1.3-0.8-1.8-1.3
	c-0.5-0.6-0.9-1.3-1.1-2.1c-0.2-0.8-0.4-1.7-0.4-2.6s0.1-1.8,0.4-2.6c0.3-0.8,0.7-1.5,1.2-2c0.5-0.6,1.1-1,1.8-1.3
	c0.7-0.3,1.5-0.5,2.3-0.5c1.1,0,2,0.2,2.7,0.7c0.7,0.5,1.3,1,1.7,1.7c0.4,0.7,0.7,1.5,0.9,2.3s0.2,1.6,0.2,2.4h-9.3
	c0,0.5,0,1.1,0.2,1.5c0.1,0.5,0.4,0.9,0.7,1.3c0.3,0.4,0.7,0.7,1.2,0.9s1.1,0.3,1.7,0.3c0.9,0,1.6-0.2,2.1-0.6
	c0.6-0.4,0.9-1,1.1-1.8h2C-253.8,350.2-254.4,351.3-255.3,352z M-255.8,344c-0.2-0.4-0.4-0.8-0.7-1.1c-0.3-0.3-0.7-0.6-1.1-0.7
	c-0.4-0.2-0.9-0.3-1.4-0.3s-1,0.1-1.4,0.3c-0.4,0.2-0.8,0.4-1.1,0.8c-0.3,0.3-0.5,0.7-0.7,1.1c-0.2,0.4-0.3,0.9-0.3,1.4h7.1
	C-255.5,344.9-255.6,344.4-255.8,344z"/>
<path id="XMLID_54_" class="st0" d="M-242,356.2c-0.9,1-2.4,1.5-4.4,1.5c-0.6,0-1.2-0.1-1.8-0.2c-0.6-0.1-1.1-0.3-1.6-0.6
	s-0.9-0.7-1.2-1.1c-0.3-0.5-0.5-1-0.5-1.7h2c0,0.4,0.1,0.7,0.3,0.9c0.2,0.3,0.5,0.5,0.8,0.6c0.3,0.2,0.7,0.3,1,0.3
	c0.4,0.1,0.7,0.1,1.1,0.1c0.7,0,1.2-0.1,1.7-0.3c0.5-0.2,0.8-0.6,1.1-1c0.3-0.4,0.5-0.9,0.7-1.5c0.1-0.6,0.2-1.2,0.2-1.9v-0.8l0,0
	c-0.4,0.8-0.9,1.3-1.6,1.7c-0.7,0.4-1.5,0.5-2.3,0.5c-0.9,0-1.7-0.2-2.4-0.5c-0.7-0.3-1.3-0.8-1.7-1.4c-0.5-0.6-0.8-1.2-1-2
	c-0.2-0.8-0.3-1.6-0.3-2.4c0-0.7,0.1-1.5,0.3-2.3c0.2-0.8,0.5-1.5,1-2.1c0.4-0.6,1-1.1,1.8-1.6c0.7-0.4,1.6-0.6,2.7-0.6
	c0.8,0,1.5,0.2,2.2,0.5c0.7,0.3,1.2,0.9,1.5,1.5l0,0V340h1.9v11.3C-240.6,353.7-241,355.2-242,356.2z M-244.5,350.7
	c0.5-0.3,0.8-0.6,1.1-1.1c0.3-0.5,0.5-1,0.6-1.5c0.1-0.6,0.2-1.1,0.2-1.7c0-0.5-0.1-1.1-0.2-1.6s-0.3-1-0.6-1.4
	c-0.3-0.4-0.6-0.8-1.1-1c-0.4-0.3-1-0.4-1.6-0.4c-0.7,0-1.2,0.1-1.7,0.4c-0.5,0.2-0.8,0.6-1.1,1c-0.3,0.4-0.5,0.9-0.6,1.4
	c-0.1,0.5-0.2,1.1-0.2,1.7c0,0.6,0.1,1.1,0.2,1.7c0.1,0.6,0.3,1.1,0.6,1.5c0.3,0.5,0.6,0.8,1.1,1.1c0.4,0.3,1,0.4,1.7,0.4
	C-245.4,351.2-245,351-244.5,350.7z"/>
<path id="XMLID_57_" class="st0" d="M-237.4,338.1v-2.5h2v2.5H-237.4z M-235.3,340.4v12.4h-2v-12.4H-235.3z"/>
<path id="XMLID_60_" class="st0" d="M-230.6,350c0.2,0.3,0.4,0.6,0.8,0.7c0.3,0.2,0.7,0.3,1.1,0.4c0.4,0.1,0.8,0.1,1.2,0.1
	c0.3,0,0.7,0,1-0.1c0.4,0,0.7-0.1,1-0.3c0.3-0.1,0.5-0.3,0.7-0.6c0.2-0.2,0.3-0.6,0.3-0.9c0-0.5-0.2-0.9-0.6-1.2
	c-0.4-0.3-0.9-0.5-1.5-0.7c-0.6-0.2-1.2-0.3-2-0.5c-0.7-0.1-1.4-0.3-2-0.6c-0.6-0.2-1.1-0.6-1.5-1c-0.4-0.4-0.6-1.1-0.6-1.9
	c0-0.6,0.1-1.2,0.4-1.6c0.3-0.4,0.6-0.8,1.1-1.1c0.4-0.3,0.9-0.5,1.5-0.6s1.1-0.2,1.6-0.2c0.7,0,1.3,0.1,1.9,0.2s1.1,0.3,1.6,0.6
	c0.5,0.3,0.8,0.7,1.1,1.2c0.3,0.5,0.4,1.1,0.5,1.9h-2c0-0.4-0.1-0.7-0.3-1c-0.2-0.3-0.4-0.5-0.7-0.6c-0.3-0.2-0.6-0.3-0.9-0.3
	c-0.3-0.1-0.7-0.1-1-0.1c-0.3,0-0.6,0-0.9,0.1c-0.3,0-0.6,0.1-0.8,0.3c-0.3,0.1-0.5,0.3-0.6,0.5c-0.2,0.2-0.2,0.5-0.2,0.8
	c0,0.4,0.1,0.6,0.4,0.9c0.2,0.2,0.6,0.4,0.9,0.6c0.4,0.2,0.8,0.3,1.3,0.4s1,0.2,1.4,0.3c0.5,0.1,1,0.2,1.5,0.4
	c0.5,0.2,0.9,0.4,1.3,0.6c0.4,0.3,0.7,0.6,0.9,1c0.2,0.4,0.3,0.9,0.3,1.5c0,0.8-0.2,1.4-0.5,1.9c-0.3,0.5-0.7,0.9-1.2,1.2
	s-1.1,0.5-1.7,0.6c-0.6,0.1-1.3,0.2-1.9,0.2c-0.7,0-1.3-0.1-2-0.2c-0.6-0.1-1.2-0.4-1.7-0.7c-0.5-0.3-0.9-0.8-1.1-1.3
	c-0.3-0.5-0.4-1.2-0.5-2h2C-230.9,349.3-230.8,349.7-230.6,350z"/>
<path id="XMLID_62_" class="st0" d="M-218.1,335.6v17.1h-2v-17.1C-220.1,335.6-218.1,335.6-218.1,335.6z"/>
<path id="XMLID_64_" class="st0" d="M-203.9,352.7c-0.4,0.2-0.8,0.3-1.5,0.3c-0.5,0-0.9-0.1-1.3-0.4c-0.3-0.3-0.5-0.8-0.5-1.4
	c-0.6,0.7-1.2,1.2-2,1.4c-0.7,0.3-1.5,0.4-2.4,0.4c-0.6,0-1.1-0.1-1.6-0.2c-0.5-0.1-0.9-0.3-1.3-0.6c-0.4-0.3-0.7-0.6-0.9-1.1
	c-0.2-0.4-0.3-1-0.3-1.6c0-0.7,0.1-1.3,0.4-1.7c0.2-0.4,0.6-0.8,0.9-1.1c0.4-0.3,0.8-0.5,1.3-0.6c0.5-0.1,1-0.3,1.5-0.4
	c0.6-0.1,1.1-0.2,1.6-0.3s0.9-0.1,1.3-0.2c0.4-0.1,0.7-0.3,0.9-0.5c0.2-0.2,0.3-0.5,0.3-0.9s-0.1-0.8-0.3-1.1
	c-0.2-0.3-0.4-0.5-0.6-0.6c-0.3-0.1-0.6-0.2-0.9-0.3c-0.3,0-0.7-0.1-1-0.1c-0.9,0-1.6,0.2-2.2,0.5c-0.6,0.3-0.9,0.9-0.9,1.9h-2
	c0-0.8,0.2-1.4,0.5-1.9c0.3-0.5,0.7-1,1.1-1.3c0.5-0.3,1-0.6,1.6-0.7c0.6-0.1,1.3-0.2,2-0.2c0.6,0,1.1,0,1.7,0.1
	c0.6,0.1,1,0.2,1.5,0.5c0.4,0.2,0.8,0.6,1.1,1c0.3,0.4,0.4,1,0.4,1.7v6.4c0,0.5,0,0.8,0.1,1.1c0.1,0.2,0.2,0.3,0.6,0.3
	c0.2,0,0.4,0,0.6-0.1v1.7H-203.9z M-207.2,346.3c-0.3,0.2-0.6,0.3-1,0.4c-0.4,0.1-0.9,0.2-1.3,0.2c-0.5,0.1-0.9,0.1-1.4,0.2
	s-0.9,0.2-1.2,0.3c-0.4,0.2-0.7,0.4-0.9,0.7c-0.2,0.3-0.3,0.7-0.3,1.2c0,0.3,0.1,0.6,0.2,0.8s0.3,0.4,0.5,0.6
	c0.2,0.1,0.5,0.2,0.8,0.3c0.3,0.1,0.6,0.1,0.9,0.1c0.7,0,1.2-0.1,1.7-0.3s0.9-0.4,1.2-0.7c0.3-0.3,0.5-0.6,0.7-0.9
	c0.1-0.3,0.2-0.6,0.2-0.9L-207.2,346.3L-207.2,346.3z"/>
<path id="XMLID_67_" class="st0" d="M-196.8,340.4v1.8h-2.5v7.7c0,0.2,0,0.4,0.1,0.6c0,0.1,0.1,0.3,0.2,0.3c0.1,0.1,0.3,0.1,0.5,0.2
	c0.2,0,0.5,0,0.8,0h0.9v1.8h-1.6c-0.5,0-1,0-1.4-0.1s-0.7-0.2-0.9-0.4c-0.2-0.2-0.4-0.5-0.5-0.8c-0.1-0.4-0.2-0.8-0.2-1.4v-7.9h-2.1
	v-1.8h2.1v-3.7h2v3.7L-196.8,340.4L-196.8,340.4z"/>
<path id="XMLID_69_" class="st0" d="M-194.4,338.1v-2.5h2v2.5H-194.4z M-192.4,340.4v12.4h-2v-12.4H-192.4z"/>
<path id="XMLID_72_" class="st0" d="M-185.8,352.7l-4.6-12.4h2.3l3.5,10.3l0,0l3.4-10.3h2.1l-4.5,12.4L-185.8,352.7L-185.8,352.7z"
	/>
<path id="XMLID_74_" class="st0" d="M-166.3,352.7c-0.4,0.2-0.8,0.3-1.5,0.3c-0.5,0-0.9-0.1-1.3-0.4c-0.3-0.3-0.5-0.8-0.5-1.4
	c-0.6,0.7-1.2,1.2-2,1.4c-0.7,0.3-1.5,0.4-2.4,0.4c-0.6,0-1.1-0.1-1.6-0.2c-0.5-0.1-0.9-0.3-1.3-0.6c-0.4-0.3-0.7-0.6-0.9-1.1
	c-0.2-0.4-0.3-1-0.3-1.6c0-0.7,0.1-1.3,0.4-1.7c0.2-0.4,0.6-0.8,0.9-1.1c0.4-0.3,0.8-0.5,1.3-0.6c0.5-0.1,1-0.3,1.5-0.4
	c0.6-0.1,1.1-0.2,1.6-0.3s0.9-0.1,1.3-0.2c0.4-0.1,0.7-0.3,0.9-0.5c0.2-0.2,0.3-0.5,0.3-0.9s-0.1-0.8-0.3-1.1
	c-0.2-0.3-0.4-0.5-0.6-0.6c-0.3-0.1-0.6-0.2-0.9-0.3c-0.3,0-0.7-0.1-1-0.1c-0.9,0-1.6,0.2-2.2,0.5c-0.6,0.3-0.9,0.9-0.9,1.9h-2
	c0-0.8,0.2-1.4,0.5-1.9s0.7-1,1.1-1.3c0.5-0.3,1-0.6,1.6-0.7s1.3-0.2,2-0.2c0.6,0,1.1,0,1.7,0.1c0.6,0.1,1,0.2,1.5,0.5
	c0.4,0.2,0.8,0.6,1.1,1c0.3,0.4,0.4,1,0.4,1.7v6.4c0,0.5,0,0.8,0.1,1.1c0.1,0.2,0.2,0.3,0.6,0.3c0.2,0,0.4,0,0.6-0.1v1.7H-166.3z
	 M-169.6,346.3c-0.3,0.2-0.6,0.3-1,0.4c-0.4,0.1-0.9,0.2-1.3,0.2c-0.5,0.1-0.9,0.1-1.4,0.2s-0.9,0.2-1.2,0.3s-0.7,0.4-0.9,0.7
	s-0.3,0.7-0.3,1.2c0,0.3,0.1,0.6,0.2,0.8c0.1,0.2,0.3,0.4,0.5,0.6c0.2,0.1,0.5,0.2,0.8,0.3c0.3,0.1,0.6,0.1,0.9,0.1
	c0.7,0,1.2-0.1,1.7-0.3s0.9-0.4,1.2-0.7c0.3-0.3,0.5-0.6,0.7-0.9c0.1-0.3,0.2-0.6,0.2-0.9L-169.6,346.3L-169.6,346.3z"/>
<path id="XMLID_49_" class="st1" d="M-221.7,393.9c-48,0-87.1-39.1-87.1-87.1s39.1-87.1,87.1-87.1s87.1,39.1,87.1,87.1
	C-134.5,354.8-173.6,393.9-221.7,393.9z M-221.7,222.7c-46.4,0-84.1,37.7-84.1,84.1s37.7,84.1,84.1,84.1s84.1-37.7,84.1-84.1
	C-137.5,260.4-175.3,222.7-221.7,222.7z"/>
<g id="XMLID_2_">
	<path id="XMLID_3_" class="st0" d="M-186.5,279.9v-1.6h3c0.8,0,1.4-0.6,1.4-1.4v-4.5h1.6c0.8,0,1.4-0.6,1.4-1.4v-4.4
		c0-0.5-0.3-1-0.7-1.2L-221,242c-0.4-0.2-0.9-0.2-1.4,0l-41.1,23.5c-0.4,0.2-0.7,0.7-0.7,1.2v4.4c0,0.8,0.6,1.4,1.4,1.4h1.6v4.5
		c0,0.8,0.6,1.4,1.4,1.4h3v1.6c0,1.1,0.6,2,1.5,2.5V308h-4.5c-0.8,0-1.4,0.6-1.4,1.4v4.4h-1.6c-0.8,0-1.4,0.6-1.4,1.4v5.9
		c0,0.8,0.6,1.4,1.4,1.4h82.3c0.8,0,1.4-0.6,1.4-1.4v-5.9c0-0.8-0.6-1.4-1.4-1.4h-1.6v-4.5c0-0.8-0.6-1.4-1.4-1.4h-4.5v-25.5
		C-187.1,281.9-186.5,281-186.5,279.9L-186.5,279.9z M-189.2,279.9C-189.2,280-189.3,280-189.2,279.9l-6,0.1c-0.1,0-0.1,0-0.1-0.1
		v-1.6h6.1V279.9z M-202.6,307.9v-25.5c0.9-0.5,1.5-1.4,1.5-2.5v-1.6h3.1v1.6c0,1.1,0.6,2,1.5,2.5v25.5H-202.6z M-208.5,307.9v-25.1
		h3.1V308h-3.1V307.9z M-217.3,307.9v-25.5c0.9-0.5,1.5-1.4,1.5-2.5v-1.6h3.1v1.6c0,1.1,0.6,2,1.5,2.5v25.5H-217.3z M-223.2,307.9
		v-25.1h3.1V308h-3.1V307.9z M-232,307.9v-25.5c0.9-0.5,1.5-1.4,1.5-2.5v-1.6h3.1v1.6c0,1.1,0.6,2,1.5,2.5v25.5H-232z M-237.9,307.9
		v-25.1h3.1V308h-3.1V307.9z M-246.7,307.9v-25.5c0.9-0.5,1.5-1.4,1.5-2.5v-1.6h3.1v1.6c0,1.1,0.6,2,1.5,2.5v25.5H-246.7z
		 M-233.3,278.4v1.6c0,0.1,0,0.1-0.1,0.1h-5.9c-0.1,0-0.1,0-0.1-0.1v-1.6H-233.3z M-218.6,278.4v1.6c0,0.1,0,0.1-0.1,0.1h-5.9
		c-0.1,0-0.1,0-0.1-0.1v-1.6H-218.6z M-203.9,278.4v1.6c0,0.1,0,0.1-0.1,0.1h-5.9c-0.1,0-0.1,0-0.1-0.1v-1.6H-203.9z M-261.5,267.5
		l39.8-22.7l39.8,22.7v2.2h-79.6V267.5z M-258.5,272.5h73.7v3.1h-73.7V272.5z M-248,278.4v1.6c0,0.1,0,0.1-0.1,0.1h-5.9
		c-0.1,0-0.1,0-0.1-0.1v-1.6H-248z M-252.6,282.8h3.1V308h-3.1V282.8z M-181.9,319.7h-79.6v-3.1h79.6V319.7z M-184.8,313.8h-73.7
		v-3.1h73.7V313.8z M-193.8,307.9v-25.1h3.1V308h-3.1V307.9z"/>
</g>
</svg>
